# xmcd
#
# Track frame offsets:
#	150
#	26172
#	57450
#	79810
#	98492
#	122430
#	143092
#	164700
#
# Disc length: 2559 seconds
#
# Revision: 0
# Processed by: cddbd v1.4PL0 Copyright (c) Steve Scherf et al.
# Submitted via: audiograbber 1.81.03
#
DISCID=6609fd08
DTITLE=John Mayall - Life In The Jungle
DYEAR=1992
DGENRE=Blues
TTITLE0=Ridin' On The L&M
TTITLE1=Help Me
TTITLE2=All Your Love
TTITLE3=I Ain't Got You
TTITLE4=One Life To Live
TTITLE5=The Last Time
TTITLE6=Fascinating Lover
TTITLE7=Life In The Jungle
EXTD=
EXTT0=
EXTT1=
EXTT2=
EXTT3=
EXTT4=
EXTT5=
EXTT6=
EXTT7=
PLAYORDER=
